<mxfile host="app.diagrams.net" modified="2022-10-27T22:51:33.478Z" agent="5.0 (Windows)" etag="7YjpDTGOyPLG7Ismztuv" version="20.5.1" type="github">
  <diagram id="Og-3xvRDEFXyA95SZDnz" name="Page-1">
    <mxGraphModel dx="2272" dy="752" grid="1" gridSize="10" guides="1" tooltips="1" connect="1" arrows="1" fold="1" page="1" pageScale="1" pageWidth="850" pageHeight="1100" background="#FFFFFF" math="0" shadow="0">
      <root>
        <mxCell id="0" />
        <mxCell id="1" parent="0" />
        <mxCell id="FEa0ERTVzPibSUoF2DyN-6" value="Handles" style="swimlane;fontStyle=0;childLayout=stackLayout;horizontal=1;startSize=30;horizontalStack=0;resizeParent=1;resizeParentMax=0;resizeLast=0;collapsible=1;marginBottom=0;" parent="1" vertex="1">
          <mxGeometry x="80" y="150" width="140" height="90" as="geometry">
            <mxRectangle x="80" y="150" width="90" height="30" as="alternateBounds" />
          </mxGeometry>
        </mxCell>
        <mxCell id="FEa0ERTVzPibSUoF2DyN-7" value="recieveHandle()" style="text;strokeColor=none;fillColor=none;align=left;verticalAlign=middle;spacingLeft=4;spacingRight=4;overflow=hidden;points=[[0,0.5],[1,0.5]];portConstraint=eastwest;rotatable=0;" parent="FEa0ERTVzPibSUoF2DyN-6" vertex="1">
          <mxGeometry y="30" width="140" height="30" as="geometry" />
        </mxCell>
        <mxCell id="FEa0ERTVzPibSUoF2DyN-8" value="sendHandle()" style="text;strokeColor=none;fillColor=none;align=left;verticalAlign=middle;spacingLeft=4;spacingRight=4;overflow=hidden;points=[[0,0.5],[1,0.5]];portConstraint=eastwest;rotatable=0;" parent="FEa0ERTVzPibSUoF2DyN-6" vertex="1">
          <mxGeometry y="60" width="140" height="30" as="geometry" />
        </mxCell>
        <mxCell id="FEa0ERTVzPibSUoF2DyN-10" value="Tweets" style="swimlane;fontStyle=0;childLayout=stackLayout;horizontal=1;startSize=30;horizontalStack=0;resizeParent=1;resizeParentMax=0;resizeLast=0;collapsible=1;marginBottom=0;" parent="1" vertex="1">
          <mxGeometry x="650" y="150" width="140" height="120" as="geometry" />
        </mxCell>
        <mxCell id="FEa0ERTVzPibSUoF2DyN-13" value="get_tweetdata()" style="text;strokeColor=none;fillColor=none;align=left;verticalAlign=middle;spacingLeft=4;spacingRight=4;overflow=hidden;points=[[0,0.5],[1,0.5]];portConstraint=eastwest;rotatable=0;" parent="FEa0ERTVzPibSUoF2DyN-10" vertex="1">
          <mxGeometry y="30" width="140" height="30" as="geometry" />
        </mxCell>
        <mxCell id="FEa0ERTVzPibSUoF2DyN-11" value="sendtweetdata()" style="text;strokeColor=none;fillColor=none;align=left;verticalAlign=middle;spacingLeft=4;spacingRight=4;overflow=hidden;points=[[0,0.5],[1,0.5]];portConstraint=eastwest;rotatable=0;" parent="FEa0ERTVzPibSUoF2DyN-10" vertex="1">
          <mxGeometry y="60" width="140" height="30" as="geometry" />
        </mxCell>
        <mxCell id="FEa0ERTVzPibSUoF2DyN-45" value="recievetweetdata()" style="text;strokeColor=none;fillColor=none;align=left;verticalAlign=middle;spacingLeft=4;spacingRight=4;overflow=hidden;points=[[0,0.5],[1,0.5]];portConstraint=eastwest;rotatable=0;" parent="FEa0ERTVzPibSUoF2DyN-10" vertex="1">
          <mxGeometry y="90" width="140" height="30" as="geometry" />
        </mxCell>
        <mxCell id="FEa0ERTVzPibSUoF2DyN-15" value="Prompts" style="swimlane;fontStyle=0;childLayout=stackLayout;horizontal=1;startSize=30;horizontalStack=0;resizeParent=1;resizeParentMax=0;resizeLast=0;collapsible=1;marginBottom=0;" parent="1" vertex="1">
          <mxGeometry x="40" y="480" width="250" height="130" as="geometry">
            <mxRectangle x="40" y="480" width="90" height="30" as="alternateBounds" />
          </mxGeometry>
        </mxCell>
        <mxCell id="FEa0ERTVzPibSUoF2DyN-16" value="prompt_for_Handle()" style="text;strokeColor=none;fillColor=none;align=left;verticalAlign=middle;spacingLeft=4;spacingRight=4;overflow=hidden;points=[[0,0.5],[1,0.5]];portConstraint=eastwest;rotatable=0;" parent="FEa0ERTVzPibSUoF2DyN-15" vertex="1">
          <mxGeometry y="30" width="250" height="30" as="geometry" />
        </mxCell>
        <mxCell id="FEa0ERTVzPibSUoF2DyN-17" value="prompt_for_Companylist()" style="text;strokeColor=none;fillColor=none;align=left;verticalAlign=middle;spacingLeft=4;spacingRight=4;overflow=hidden;points=[[0,0.5],[1,0.5]];portConstraint=eastwest;rotatable=0;" parent="FEa0ERTVzPibSUoF2DyN-15" vertex="1">
          <mxGeometry y="60" width="250" height="30" as="geometry" />
        </mxCell>
        <mxCell id="FEa0ERTVzPibSUoF2DyN-43" value="prompt_to_addcompany()" style="text;strokeColor=none;fillColor=none;align=left;verticalAlign=middle;spacingLeft=4;spacingRight=4;overflow=hidden;points=[[0,0.5],[1,0.5]];portConstraint=eastwest;rotatable=0;" parent="FEa0ERTVzPibSUoF2DyN-15" vertex="1">
          <mxGeometry y="90" width="250" height="20" as="geometry" />
        </mxCell>
        <mxCell id="FEa0ERTVzPibSUoF2DyN-44" value="prompt_to_deletecompany()" style="text;strokeColor=none;fillColor=none;align=left;verticalAlign=middle;spacingLeft=4;spacingRight=4;overflow=hidden;points=[[0,0.5],[1,0.5]];portConstraint=eastwest;rotatable=0;" parent="FEa0ERTVzPibSUoF2DyN-15" vertex="1">
          <mxGeometry y="110" width="250" height="20" as="geometry" />
        </mxCell>
        <mxCell id="FEa0ERTVzPibSUoF2DyN-19" value="Companylist" style="swimlane;fontStyle=0;childLayout=stackLayout;horizontal=1;startSize=30;horizontalStack=0;resizeParent=1;resizeParentMax=0;resizeLast=0;collapsible=1;marginBottom=0;" parent="1" vertex="1">
          <mxGeometry x="650" y="480" width="150" height="130" as="geometry" />
        </mxCell>
        <mxCell id="FEa0ERTVzPibSUoF2DyN-20" value="addcompany()" style="text;strokeColor=none;fillColor=none;align=left;verticalAlign=middle;spacingLeft=4;spacingRight=4;overflow=hidden;points=[[0,0.5],[1,0.5]];portConstraint=eastwest;rotatable=0;" parent="FEa0ERTVzPibSUoF2DyN-19" vertex="1">
          <mxGeometry y="30" width="150" height="30" as="geometry" />
        </mxCell>
        <mxCell id="FEa0ERTVzPibSUoF2DyN-21" value="deletecompany()" style="text;strokeColor=none;fillColor=none;align=left;verticalAlign=middle;spacingLeft=4;spacingRight=4;overflow=hidden;points=[[0,0.5],[1,0.5]];portConstraint=eastwest;rotatable=0;" parent="FEa0ERTVzPibSUoF2DyN-19" vertex="1">
          <mxGeometry y="60" width="150" height="30" as="geometry" />
        </mxCell>
        <mxCell id="FEa0ERTVzPibSUoF2DyN-18" value="recievecompanySelect()" style="text;strokeColor=none;fillColor=none;align=left;verticalAlign=middle;spacingLeft=4;spacingRight=4;overflow=hidden;points=[[0,0.5],[1,0.5]];portConstraint=eastwest;rotatable=0;" parent="FEa0ERTVzPibSUoF2DyN-19" vertex="1">
          <mxGeometry y="90" width="150" height="20" as="geometry" />
        </mxCell>
        <mxCell id="FEa0ERTVzPibSUoF2DyN-34" value="sendcompanySelection()" style="text;strokeColor=none;fillColor=none;align=left;verticalAlign=middle;spacingLeft=4;spacingRight=4;overflow=hidden;points=[[0,0.5],[1,0.5]];portConstraint=eastwest;rotatable=0;" parent="FEa0ERTVzPibSUoF2DyN-19" vertex="1">
          <mxGeometry y="110" width="150" height="20" as="geometry" />
        </mxCell>
        <mxCell id="FEa0ERTVzPibSUoF2DyN-23" value="Display" style="swimlane;fontStyle=0;childLayout=stackLayout;horizontal=1;startSize=30;horizontalStack=0;resizeParent=1;resizeParentMax=0;resizeLast=0;collapsible=1;marginBottom=0;" parent="1" vertex="1">
          <mxGeometry x="355" y="250" width="140" height="150" as="geometry" />
        </mxCell>
        <mxCell id="FEa0ERTVzPibSUoF2DyN-24" value="displaytweet()" style="text;strokeColor=none;fillColor=none;align=left;verticalAlign=middle;spacingLeft=4;spacingRight=4;overflow=hidden;points=[[0,0.5],[1,0.5]];portConstraint=eastwest;rotatable=0;" parent="FEa0ERTVzPibSUoF2DyN-23" vertex="1">
          <mxGeometry y="30" width="140" height="30" as="geometry" />
        </mxCell>
        <mxCell id="FEa0ERTVzPibSUoF2DyN-25" value="displaycompanylist()" style="text;strokeColor=none;fillColor=none;align=left;verticalAlign=middle;spacingLeft=4;spacingRight=4;overflow=hidden;points=[[0,0.5],[1,0.5]];portConstraint=eastwest;rotatable=0;" parent="FEa0ERTVzPibSUoF2DyN-23" vertex="1">
          <mxGeometry y="60" width="140" height="30" as="geometry" />
        </mxCell>
        <mxCell id="FEa0ERTVzPibSUoF2DyN-26" value="displayhandles()" style="text;strokeColor=none;fillColor=none;align=left;verticalAlign=middle;spacingLeft=4;spacingRight=4;overflow=hidden;points=[[0,0.5],[1,0.5]];portConstraint=eastwest;rotatable=0;" parent="FEa0ERTVzPibSUoF2DyN-23" vertex="1">
          <mxGeometry y="90" width="140" height="30" as="geometry" />
        </mxCell>
        <mxCell id="FEa0ERTVzPibSUoF2DyN-41" value="displayprompts()" style="text;strokeColor=none;fillColor=none;align=left;verticalAlign=middle;spacingLeft=4;spacingRight=4;overflow=hidden;points=[[0,0.5],[1,0.5]];portConstraint=eastwest;rotatable=0;" parent="FEa0ERTVzPibSUoF2DyN-23" vertex="1">
          <mxGeometry y="120" width="140" height="30" as="geometry" />
        </mxCell>
        <mxCell id="FEa0ERTVzPibSUoF2DyN-62" value="" style="endArrow=classic;startArrow=classic;html=1;rounded=0;" parent="1" source="FEa0ERTVzPibSUoF2DyN-15" target="FEa0ERTVzPibSUoF2DyN-8" edge="1">
          <mxGeometry width="50" height="50" relative="1" as="geometry">
            <mxPoint x="120" y="410" as="sourcePoint" />
            <mxPoint x="170" y="360" as="targetPoint" />
          </mxGeometry>
        </mxCell>
        <mxCell id="FEa0ERTVzPibSUoF2DyN-63" value="" style="endArrow=classic;startArrow=classic;html=1;rounded=0;" parent="1" source="FEa0ERTVzPibSUoF2DyN-23" target="FEa0ERTVzPibSUoF2DyN-6" edge="1">
          <mxGeometry width="50" height="50" relative="1" as="geometry">
            <mxPoint x="380" y="210" as="sourcePoint" />
            <mxPoint x="430" y="160" as="targetPoint" />
            <Array as="points">
              <mxPoint x="430" y="200" />
            </Array>
          </mxGeometry>
        </mxCell>
        <mxCell id="FEa0ERTVzPibSUoF2DyN-64" value="" style="endArrow=classic;startArrow=classic;html=1;rounded=0;" parent="1" source="FEa0ERTVzPibSUoF2DyN-17" target="FEa0ERTVzPibSUoF2DyN-41" edge="1">
          <mxGeometry width="50" height="50" relative="1" as="geometry">
            <mxPoint x="588" y="593.75" as="sourcePoint" />
            <mxPoint x="440" y="390" as="targetPoint" />
            <Array as="points">
              <mxPoint x="430" y="555" />
            </Array>
          </mxGeometry>
        </mxCell>
        <mxCell id="FEa0ERTVzPibSUoF2DyN-68" value="" style="endArrow=classic;startArrow=classic;html=1;rounded=0;" parent="1" source="FEa0ERTVzPibSUoF2DyN-19" target="FEa0ERTVzPibSUoF2DyN-23" edge="1">
          <mxGeometry width="50" height="50" relative="1" as="geometry">
            <mxPoint x="600" y="380" as="sourcePoint" />
            <mxPoint x="650" y="330" as="targetPoint" />
            <Array as="points">
              <mxPoint x="570" y="440" />
            </Array>
          </mxGeometry>
        </mxCell>
        <mxCell id="FEa0ERTVzPibSUoF2DyN-71" value="" style="endArrow=classic;startArrow=classic;html=1;rounded=0;" parent="1" source="FEa0ERTVzPibSUoF2DyN-45" target="FEa0ERTVzPibSUoF2DyN-23" edge="1">
          <mxGeometry width="50" height="50" relative="1" as="geometry">
            <mxPoint x="728" y="383.75" as="sourcePoint" />
            <mxPoint x="520" y="330" as="targetPoint" />
            <Array as="points">
              <mxPoint x="720" y="320" />
            </Array>
          </mxGeometry>
        </mxCell>
        <mxCell id="mfO6VsYWuOgRrmGCH8Ri-1" value="Interface" style="swimlane;" parent="1" vertex="1">
          <mxGeometry x="-90" y="60" width="1030" height="630" as="geometry" />
        </mxCell>
        <mxCell id="mfO6VsYWuOgRrmGCH8Ri-2" value="" style="endArrow=classic;html=1;rounded=0;exitX=0;exitY=0.5;exitDx=0;exitDy=0;" parent="1" source="mfO6VsYWuOgRrmGCH8Ri-1" edge="1">
          <mxGeometry width="50" height="50" relative="1" as="geometry">
            <mxPoint x="-80" y="460" as="sourcePoint" />
            <mxPoint x="-530" y="380" as="targetPoint" />
            <Array as="points" />
          </mxGeometry>
        </mxCell>
      </root>
    </mxGraphModel>
  </diagram>
</mxfile>
